HIERARCHY
ROOT SimulationBone
{
	OFFSET 0.000000 0.000000 0.000000
	CHANNELS 6 Xposition Yposition Zposition Zrotation Yrotation Xrotation 
	JOINT Hips
	{
		OFFSET 0.000000 0.000000 0.000000
		CHANNELS 6 Xposition Yposition Zposition Zrotation Yrotation Xrotation 
		JOINT LeftUpLeg
		{
			OFFSET 0.103459 1.857839 10.548500
			CHANNELS 3 Zrotation Yrotation Xrotation
			JOINT LeftLeg
			{
				OFFSET 43.500004 -0.000053 -0.000011
				CHANNELS 3 Zrotation Yrotation Xrotation
				JOINT LeftFoot
				{
					OFFSET 42.372192 0.000015 -0.000008
					CHANNELS 3 Zrotation Yrotation Xrotation
					JOINT LeftToe
					{
						OFFSET 17.300007 0.000002 0.000013
						CHANNELS 3 Zrotation Yrotation Xrotation
						End Site
						{
							OFFSET 0.000000 0.000000 0.000000
						}
					}
				}
			}
		}
		JOINT RightUpLeg
		{
			OFFSET 0.103460 1.857826 -10.548500
			CHANNELS 3 Zrotation Yrotation Xrotation
			JOINT RightLeg
			{
				OFFSET 43.500046 -0.000019 0.000011
				CHANNELS 3 Zrotation Yrotation Xrotation
				JOINT RightFoot
				{
					OFFSET 42.372261 0.000004 0.000012
					CHANNELS 3 Zrotation Yrotation Xrotation
					JOINT RightToe
					{
						OFFSET 17.299995 -0.000004 0.000006
						CHANNELS 3 Zrotation Yrotation Xrotation
						End Site
						{
							OFFSET 0.000000 0.000000 0.000000
						}
					}
				}
			}
		}
		JOINT Spine
		{
			OFFSET 6.901963 -2.603745 -0.000005
			CHANNELS 3 Zrotation Yrotation Xrotation
			JOINT Spine1
			{
				OFFSET 12.588102 0.000012 0.000012
				CHANNELS 3 Zrotation Yrotation Xrotation
				JOINT Spine2
				{
					OFFSET 12.343202 0.000010 -0.000009
					CHANNELS 3 Zrotation Yrotation Xrotation
					JOINT Neck
					{
						OFFSET 25.832901 -0.000008 0.000006
						CHANNELS 3 Zrotation Yrotation Xrotation
						JOINT Head
						{
							OFFSET 11.766603 0.000007 -0.000001
							CHANNELS 3 Zrotation Yrotation Xrotation
							End Site
							{
								OFFSET 0.000000 0.000000 0.000000
							}
						}
					}
					JOINT LeftShoulder
					{
						OFFSET 19.745903 -1.480391 6.000108
						CHANNELS 3 Zrotation Yrotation Xrotation
						JOINT LeftArm
						{
							OFFSET 11.284125 -0.000031 -0.000021
							CHANNELS 3 Zrotation Yrotation Xrotation
							JOINT LeftForeArm
							{
								OFFSET 33.000046 0.000024 0.000034
								CHANNELS 3 Zrotation Yrotation Xrotation
								JOINT LeftHand
								{
									OFFSET 25.200014 0.000020 0.000007
									CHANNELS 3 Zrotation Yrotation Xrotation
									End Site
									{
										OFFSET 0.000000 0.000000 0.000000
									}
								}
							}
						}
					}
					JOINT RightShoulder
					{
						OFFSET 19.746098 -1.480371 -6.000075
						CHANNELS 3 Zrotation Yrotation Xrotation
						JOINT RightArm
						{
							OFFSET 11.284128 -0.000021 -0.000009
							CHANNELS 3 Zrotation Yrotation Xrotation
							JOINT RightForeArm
							{
								OFFSET 33.000095 0.000034 0.000006
								CHANNELS 3 Zrotation Yrotation Xrotation
								JOINT RightHand
								{
									OFFSET 25.199781 0.000147 0.000427
									CHANNELS 3 Zrotation Yrotation Xrotation
									End Site
									{
										OFFSET 0.000000 0.000000 0.000000
									}
								}
							}
						}
					}
				}
			}
		}
	}
}
MOTION
Frames: 13
Frame Time: 0.016667
192.907616 0.000000 541.492143 180.000000 41.156736 180.000000 -1.449536 86.134628 0.511614 89.059387 1.727795 -179.683742 -173.808821 -9.760191 167.065785 -43.961808 2.572935 1.741839 75.588125 -2.893280 -5.551310 21.454555 0.003092 0.000001 148.318923 -1.035507 -172.391953 -29.164890 -1.730057 2.149579 73.975777 -1.853438 -0.952718 21.454558 -0.003104 -0.000017 6.744333 0.510366 -1.637014 3.460798 1.068696 -3.258386 3.143189 1.049145 -3.264775 -3.166001 7.458037 0.150980 -17.037086 -5.014719 3.837853 -174.640587 -82.361376 -6.985263 -28.244593 51.393382 1.676042 -61.511405 -19.183524 2.442752 3.545603 -15.192245 5.044369 -174.784076 74.337644 6.729973 25.876143 -53.617219 -50.394409 -32.452530 11.157532 -1.057124 11.618822 -3.149962 -4.971912 
191.454672 0.000000 540.048708 180.000000 41.169857 180.000000 -1.352760 86.145083 0.768009 89.258771 2.406118 179.996358 -176.076058 -11.032945 167.453484 -49.835484 3.032488 1.205650 71.145731 -2.867321 -5.827724 21.454559 0.003095 0.000000 148.844129 -1.888341 -172.977861 -31.337773 -1.266494 2.572837 76.283641 -2.119843 -0.919246 21.454559 -0.003109 -0.000017 6.800503 0.652752 -1.467047 3.571272 1.349790 -2.913735 3.253514 1.332316 -2.921818 -2.974653 7.217724 0.079110 -17.146970 -5.124365 3.738889 -176.437005 -82.083245 -5.163077 -27.263917 52.376012 3.363079 -60.129106 -19.245781 2.394776 3.497308 -15.369948 4.150236 -175.301653 74.198389 6.197930 23.934529 -53.799175 -49.201377 -32.440052 11.093351 -1.053043 11.698422 -3.207614 -5.828301 
190.009989 0.000000 538.624939 180.000000 41.213956 180.000000 -1.311342 86.279289 0.971437 89.383344 3.050403 179.784643 -178.850443 -12.054904 168.548428 -55.809215 3.284447 -0.003060 67.207851 -2.571980 -6.708065 21.454563 0.003096 -0.000002 149.794544 -2.601697 -172.517464 -32.484792 -1.201739 2.396093 78.147301 -1.910450 -0.720226 21.454560 -0.003113 -0.000017 6.841166 0.780734 -1.294491 3.651937 1.601332 -2.564292 3.334041 1.585964 -2.573894 -2.589161 7.229047 -0.046995 -17.325121 -5.330913 3.674259 -178.539629 -82.084475 -3.033797 -26.428456 53.569599 5.210850 -58.239041 -19.243479 2.322707 3.412025 -15.142716 3.216561 -176.187011 73.975678 5.286990 21.941270 -53.990570 -48.098382 -32.519079 11.336190 -1.070156 11.605199 -3.150853 -6.708947 
188.566304 0.000000 537.222904 180.000000 41.294236 180.000000 -1.334506 86.568488 1.118845 89.403527 3.577204 179.756180 177.800769 -12.719522 170.110944 -61.657568 3.262933 -1.715984 64.259436 -1.904578 -7.627348 21.454563 0.003092 -0.000004 151.076118 -3.163871 -171.256866 -32.728146 -1.595168 1.814419 79.616727 -1.467891 -0.695824 21.454558 -0.003115 -0.000017 6.867244 0.882854 -1.144033 3.704331 1.801339 -2.259869 3.386331 1.787803 -2.270692 -2.290096 7.146519 -0.175586 -17.374443 -5.375891 3.523205 -178.587695 -82.146300 -2.986117 -26.166683 54.760391 7.087760 -55.890857 -19.086478 2.225988 4.232729 -14.675637 2.249828 -177.129699 73.822586 4.317187 19.809103 -54.268588 -47.049824 -32.727424 11.796205 -1.103803 11.704032 -3.272715 -7.165796 
187.116512 0.000000 535.844601 180.000000 41.413114 180.000000 -1.396231 86.998016 1.232483 89.380673 3.917613 -179.982979 174.129813 -12.882705 171.881519 -66.922568 3.095501 -3.309790 63.037782 -0.989313 -8.015225 21.454560 0.003089 -0.000004 152.665519 -3.489000 -170.216497 -32.271226 -1.832200 1.372689 80.781773 -1.150022 -0.716852 21.454557 -0.003114 -0.000017 6.885842 0.944755 -1.033534 3.742267 1.921945 -2.036642 3.424199 1.909751 -2.048206 -2.154305 6.945986 -0.336624 -17.160905 -5.353834 3.281723 -177.026687 -82.181559 -4.567191 -26.375285 55.832174 9.036885 -53.150547 -18.749392 2.106540 5.544152 -13.780234 1.485776 -177.788950 73.743923 3.639037 17.478655 -54.588000 -45.800389 -33.091962 12.174840 -1.136829 11.909880 -3.221452 -7.287437 
185.655325 0.000000 534.490206 180.000000 41.568071 180.000000 -1.468340 87.535708 1.336932 89.374688 4.035773 -179.396239 170.444899 -12.483408 173.551857 -71.187366 3.032796 -4.251281 63.969228 -0.017083 -7.480520 21.454554 0.003090 -0.000001 154.538060 -3.504250 -170.226110 -31.332163 -1.420230 1.510571 81.722829 -1.218561 -0.592930 21.454558 -0.003110 -0.000017 6.901996 0.955783 -0.965263 3.775579 1.942091 -1.899490 3.457474 1.930721 -1.911176 -2.179673 6.680690 -0.563068 -16.611383 -5.394300 2.972487 -175.042101 -82.136436 -6.576182 -26.781469 56.708895 11.127970 -50.134581 -18.220230 1.969866 6.723069 -12.248065 1.188320 -177.902432 73.694816 3.521787 14.915423 -54.848542 -44.173047 -33.624444 12.225956 -1.152331 12.016501 -2.607666 -7.221196 
184.178594 0.000000 533.156265 180.000000 41.754739 180.000000 -1.551254 88.125290 1.448123 89.355078 4.013650 -178.745504 166.897653 -11.726811 174.732495 -74.399378 3.165404 -4.695268 65.892289 0.787926 -6.539368 21.454551 0.003093 0.000002 156.538811 -3.460016 -170.608577 -30.051636 -0.983781 1.854581 82.431838 -1.391589 -0.320296 21.454560 -0.003105 -0.000016 6.906349 0.923129 -0.886018 3.786107 1.874332 -1.741978 3.467981 1.863910 -1.753254 -2.252857 6.391809 -0.824253 -15.836113 -5.419607 2.607270 -173.631945 -82.009561 -8.003120 -27.017842 57.405279 13.294284 -47.146261 -17.478244 1.824856 7.673476 -10.032190 1.503219 -177.581039 73.567697 3.849989 12.149873 -54.901888 -42.512012 -34.291660 12.121150 -1.159508 11.797488 -1.522354 -6.827146 
182.681978 0.000000 531.835495 180.000000 41.969326 180.000000 -1.651149 88.712627 1.566999 89.277422 3.944080 -178.305213 163.559403 -10.879383 175.168144 -76.592221 3.450094 -4.914921 67.524562 1.266519 -5.899332 21.454553 0.003093 0.000004 158.514271 -3.644036 -170.620513 -28.549283 -1.155467 1.952339 82.897790 -1.360038 0.064124 21.454560 -0.003103 -0.000016 6.888550 0.858646 -0.745832 3.753560 1.740670 -1.463948 3.435418 1.731926 -1.474427 -2.250755 6.089523 -1.068132 -15.012172 -5.314983 2.204944 -173.259516 -81.831374 -8.378956 -26.773445 57.979788 15.455829 -44.483820 -16.539061 1.680867 8.469955 -7.198578 2.524736 -177.103464 73.308116 4.336820 9.287559 -54.686505 -41.201953 -35.050252 12.092209 -1.174437 11.144768 -0.153151 -5.993979 
181.161349 0.000000 530.520486 180.000000 42.207714 180.000000 -1.760118 89.276260 1.649858 89.126002 3.842027 -178.105651 160.443794 -10.059603 175.097568 -77.828570 3.692994 -5.020878 68.784450 1.388845 -5.928788 21.454557 0.003092 0.000004 160.444818 -3.945210 -170.685157 -26.902693 -1.550075 1.961794 83.181164 -1.260981 0.505712 21.454560 -0.003104 -0.000016 6.848762 0.774957 -0.563238 3.677472 1.567130 -1.101993 3.359317 1.560574 -1.111437 -2.119997 5.668825 -1.216733 -14.395464 -5.021874 1.813957 -172.738543 -81.673728 -8.905692 -26.075691 58.619509 17.592206 -42.241755 -15.569066 1.555328 9.262768 -4.124554 4.284004 -176.994025 73.145673 4.447012 6.535579 -54.456785 -40.128122 -35.857485 12.194942 -1.199966 10.404606 1.378526 -4.965012 
179.614935 0.000000 529.205832 180.000000 42.464251 180.000000 -1.866782 89.795652 1.660800 88.904185 3.714423 -178.106917 157.559170 -9.311016 174.813647 -78.176762 3.714403 -5.059985 69.874252 1.209292 -6.685977 21.454556 0.003092 0.000002 162.336931 -4.165908 -171.252312 -25.201631 -1.709541 2.110376 83.371842 -1.263151 0.947975 21.454560 -0.003105 -0.000016 6.790978 0.685535 -0.368183 3.565053 1.381872 -0.715425 3.246884 1.377659 -0.723756 -1.840211 5.050345 -1.218185 -14.172845 -4.552704 1.482786 -171.101081 -81.566523 -10.564712 -24.923336 59.457874 19.823322 -40.461134 -14.744106 1.453845 10.171319 -1.256435 6.632857 -177.656211 73.303739 3.768975 4.025880 -54.450443 -39.042487 -36.695504 12.434577 -1.235635 9.907367 2.957989 -3.993291 
178.042699 0.000000 527.891281 180.000000 42.732118 180.000000 -1.964319 90.221291 1.643219 88.663910 3.615757 -178.228477 154.908526 -8.659302 174.340428 -77.699739 3.550288 -5.015238 70.896400 1.014855 -7.363746 21.454555 0.003092 -0.000000 164.155496 -4.331499 -171.763917 -23.628916 -1.839791 2.181883 83.617490 -1.216296 1.358413 21.454560 -0.003105 -0.000016 6.723695 0.606496 -0.167792 3.433064 1.217570 -0.317816 3.114886 1.215768 -0.325158 -1.450589 4.374613 -1.146243 -14.175966 -4.133603 1.239682 -169.599456 -81.362722 -12.086455 -22.961012 60.254452 22.686831 -39.187212 -14.122796 1.379491 11.108439 1.013672 8.728324 -178.871972 73.692874 2.526952 1.691606 -54.560328 -37.886833 -37.645287 12.789679 -1.281553 9.519314 4.494329 -3.092770 
176.444722 0.000000 526.583390 180.000000 43.005469 180.000000 -2.046643 90.510513 1.653468 88.454381 3.600589 -178.392884 152.488636 -8.136377 173.690626 -76.461813 3.266984 -4.839912 71.901234 1.008308 -7.232299 21.454557 0.003092 0.000002 165.860852 -4.547332 -171.657437 -22.344645 -2.198060 1.943881 84.043984 -0.966549 1.726890 21.454558 -0.003103 -0.000016 6.656640 0.550734 0.035621 3.301023 1.100181 0.086679 2.982848 1.100829 0.080043 -1.032323 3.798104 -1.081546 -14.178584 -3.963135 1.099564 -169.350768 -80.984362 -12.338109 -19.979909 60.766168 26.550518 -38.415465 -13.719176 1.334038 11.877552 2.493957 9.799248 179.724874 74.155813 1.096108 -0.552265 -54.617887 -36.628879 -38.799281 13.223021 -1.338152 9.041740 5.879813 -2.296118 
174.820329 0.000000 525.287543 180.000000 43.279032 180.000000 -2.124951 90.677032 1.703374 88.265259 3.675560 -178.577734 150.280881 -7.788410 173.099055 -74.535074 2.839175 -4.412186 72.871438 0.928379 -6.769854 21.454560 0.003092 0.000003 167.448330 -4.846299 -171.338656 -21.330230 -2.646807 1.611969 84.621467 -0.658921 2.101695 21.454557 -0.003103 -0.000016 6.599672 0.515742 0.236336 3.188817 1.024820 0.486565 2.870658 1.027887 0.480378 -0.782879 3.318737 -1.015314 -14.085540 -3.926566 1.034124 -168.871522 -80.724674 -12.824237 -16.552981 61.266160 30.836514 -37.933094 -13.484933 1.306404 12.371394 3.617980 10.147142 178.452038 74.569317 -0.199936 -2.780800 -54.546626 -35.024516 -40.196045 13.661313 -1.403408 8.468849 6.881358 -1.904914 
